<?xml version="1.0" encoding="UTF-8"?>
<svg width="48px" height="48px" viewBox="0 0 48 48" version="1.1" xmlns="http://www.w3.org/2000/svg" xmlns:xlink="http://www.w3.org/1999/xlink">
    <!-- Generator: Sketch 59.1 (86144) - https://sketch.com -->
    <title>Slice 1</title>
    <desc>Created with Sketch.</desc>
    <defs>
        <linearGradient x1="13.3944793%" y1="50%" x2="82.5016213%" y2="263.81084%" id="linearGradient-1">
            <stop stop-color="#DDCC1C" offset="0%"></stop>
            <stop stop-color="#DCC900" offset="100%"></stop>
        </linearGradient>
        <linearGradient x1="13.3944793%" y1="50%" x2="82.5016213%" y2="54.3634865%" id="linearGradient-2">
            <stop stop-color="#DDCC1C" offset="0%"></stop>
            <stop stop-color="#DCC900" offset="100%"></stop>
        </linearGradient>
        <path d="M3.53878852,4 L9.46121148,4 C9.75877616,4 10,3.77614237 10,3.5 C10,3.22385763 9.75877616,3 9.46121148,3 L3.53878852,3 C3.24122384,3 3,3.22385763 3,3.5 C3,3.77614237 3.24122384,4 3.53878852,4 Z" id="path-3"></path>
        <linearGradient x1="13.3944793%" y1="50%" x2="82.5016213%" y2="63.3631775%" id="linearGradient-4">
            <stop stop-color="#DDCC1C" offset="0%"></stop>
            <stop stop-color="#DCC900" offset="100%"></stop>
        </linearGradient>
        <path d="M12.5717508,4 L15.4282492,4 C15.7440185,4 16,3.77614237 16,3.5 C16,3.22385763 15.7440185,3 15.4282492,3 L12.5717508,3 C12.2559815,3 12,3.22385763 12,3.5 C12,3.77614237 12.2559815,4 12.5717508,4 Z" id="path-5"></path>
        <linearGradient x1="13.3944793%" y1="50%" x2="82.5016213%" y2="51.2651529%" id="linearGradient-6">
            <stop stop-color="#DDCC1C" offset="0%"></stop>
            <stop stop-color="#DCC900" offset="100%"></stop>
        </linearGradient>
        <path d="M3.56555689,7 L15.4344431,7 C15.7467916,7 16,6.77614237 16,6.5 C16,6.22385763 15.7467916,6 15.4344431,6 L3.56555689,6 C3.25320844,6 3,6.22385763 3,6.5 C3,6.77614237 3.25320844,7 3.56555689,7 Z" id="path-7"></path>
        <linearGradient x1="13.3944793%" y1="50%" x2="82.5016213%" y2="50.9502704%" id="linearGradient-8">
            <stop stop-color="#DDCC1C" offset="0%"></stop>
            <stop stop-color="#DCC900" offset="100%"></stop>
        </linearGradient>
        <path d="M17.3991487,30.000495 L3.6008513,30.000495 C3.38942431,29.9923283 3.1899094,30.085707 3.08138974,30.2436178 C2.97287009,30.4015287 2.97287009,30.5984713 3.08138974,30.7563822 C3.1899094,30.914293 3.38942431,31.0076717 3.6008513,30.999505 L17.3991487,30.999505 C17.6105757,31.0076717 17.8100906,30.914293 17.9186103,30.7563822 C18.0271299,30.5984713 18.0271299,30.4015287 17.9186103,30.2436178 C17.8100906,30.085707 17.6105757,29.9923283 17.3991487,30.000495 L17.3991487,30.000495 Z" id="path-9"></path>
        <linearGradient x1="13.3944793%" y1="50%" x2="82.5016213%" y2="73.75676%" id="linearGradient-10">
            <stop stop-color="#DDCC1C" offset="0%"></stop>
            <stop stop-color="#DCC900" offset="100%"></stop>
        </linearGradient>
        <path d="M21.2333416,30.000495 L19.7666584,30.000495 C19.4968874,29.9923283 19.2423156,30.085707 19.1038495,30.2436178 C18.9653835,30.4015287 18.9653835,30.5984713 19.1038495,30.7563822 C19.2423156,30.914293 19.4968874,31.0076717 19.7666584,30.999505 L21.2333416,30.999505 C21.5031126,31.0076717 21.7576844,30.914293 21.8961505,30.7563822 C22.0346165,30.5984713 22.0346165,30.4015287 21.8961505,30.2436178 C21.7576844,30.085707 21.5031126,29.9923283 21.2333416,30.000495 Z" id="path-11"></path>
    </defs>
    <g id="Page-1" stroke="none" stroke-width="1" fill="none" fill-rule="evenodd">
        <g id="Car-Finance-">
            <rect id="Rectangle" fill-opacity="0" fill="#D8D8D8" x="0" y="0" width="48" height="48"></rect>
            <g id="Page-1" transform="translate(7.000000, 7.000000)" fill-rule="nonzero">
                <path d="M33.6644737,20.6778067 L27.9929605,18.2307819 C27.8501128,18.1696036 27.6884398,18.1696036 27.5455921,18.2307819 L26.0681579,18.8716161 L26.0681579,7.93381797 C26.0681579,7.92151574 26.0614474,7.91145028 26.0614474,7.89914805 C26.0578184,7.84800949 26.0472842,7.79759738 26.0301316,7.74928456 C26.0245395,7.73139041 26.0189474,7.71349627 26.0122368,7.6967205 C25.9845912,7.63695097 25.9467448,7.58245393 25.9003947,7.53567317 L18.5355921,0.168876024 C18.4876868,0.121829274 18.4315908,0.0839278614 18.3700658,0.0570375974 C18.3538599,0.0489809524 18.3370286,0.0422486827 18.3197368,0.0369066807 C18.2699688,0.0196212476 18.2180077,0.00945528091 18.1653947,0.00671030558 C18.1542105,0.00671030558 18.1441447,0 18.1329605,0 L1.7,0 C0.760935039,0.000617379536 0,0.76202819 0,1.70106247 L0,32.3000559 C0.000616910107,33.2386535 0.761371577,33.9993831 1.7,34 L24.3670395,34 C25.092119,33.997409 25.7355262,33.5346384 25.9686184,32.8480642 L27.4382237,33.8948719 C27.6351586,34.034625 27.8989204,34.034625 28.0958553,33.8948719 L32.5225658,30.7443834 C33.4445245,30.0907893 33.994636,29.0326612 34,27.902569 L34,21.1922634 C33.9984807,20.9698939 33.8673625,20.7688525 33.6644737,20.6778067 Z M18.7,1.93592316 L24.1321711,7.36791553 L18.7,7.36791553 L18.7,1.93592316 Z M24.9329605,32.3000559 C24.9329611,32.6127766 24.6797699,32.8664599 24.3670395,32.8670767 L1.7,32.8670767 C1.38683275,32.8670767 1.13296053,32.6132129 1.13296053,32.3000559 L1.13296053,1.70106247 C1.13296053,1.38790551 1.38683275,1.13404164 1.7,1.13404164 L17.5670395,1.13404164 L17.5670395,7.36791553 C17.5670395,7.99361177 18.0742832,8.50083879 18.7,8.50083879 L24.9329605,8.50083879 L24.9329605,19.3569948 L21.8729605,20.6778067 C21.6682273,20.7696853 21.5367567,20.973458 21.5374342,21.1978553 L21.5374342,27.9081609 C21.5426851,29.0385482 22.0933168,30.0968758 23.0159868,30.7499753 L24.9374342,32.1177593 L24.9329605,32.3000559 Z M32.8670395,27.902569 C32.8608025,28.6669059 32.4859344,29.3812144 31.8604605,29.820598 L27.7636842,32.7373442 L23.6657895,29.820598 C23.0397401,29.3817202 22.6647043,28.6670921 22.6592105,27.902569 L22.6592105,21.5702773 L25.7001974,20.2561758 L25.7236842,20.2461103 L27.7592105,19.3670603 L32.8592105,21.5702773 L32.8670395,27.902569 Z" id="Shape" fill="url(#linearGradient-1)"></path>
                <path d="M24.9269713,26.195524 C24.7641217,26.0631692 24.5438323,26.0317743 24.3518177,26.113555 C24.1598031,26.1953358 24.026388,26.3773765 24.0034841,26.5888455 C23.9805802,26.8003144 24.0718047,27.0078142 24.2416623,27.1306069 L26.5252743,28.8831667 C26.7722194,29.072503 27.1215105,29.0270747 27.3142813,28.7805497 L31.8826324,22.9394523 C32.0710741,22.6871163 32.028133,22.3270456 31.7859145,22.1284515 C31.5436961,21.9298574 31.1907916,21.9653756 30.9910544,22.2084504 L26.7687393,27.6044898 L24.9269713,26.195524 Z" id="Path" fill="#FFFFFF"></path>
                <path d="M21,17.6541046 C20.9964829,16.2355081 19.9790124,15.0306528 18.6017881,14.8142225 L17.2494393,10.23329 C17.0367864,9.49897044 16.3728326,8.99622703 15.6208041,9.00004629 L9.37583835,9.00004629 C8.6219891,8.99444687 7.95548549,9.49739382 7.74161033,10.23329 L6.3993286,14.8142225 C5.02214724,15.0310415 4.00454175,16.235495 4,17.6541046 L4,19.9610818 C4.00061699,20.9167172 4.76147169,21.691256 5.70022353,21.6918841 L5.70022353,22.2691977 C5.70084052,23.2248332 6.46169522,23.9993719 7.40044706,24 L8.53467513,24 C9.47342697,23.9993719 10.2342817,23.2248332 10.2348987,22.2691977 L10.2348987,21.6918841 L14.7662181,21.6918841 L14.7662181,22.2691977 C14.7668351,23.2248332 15.5276898,23.9993719 16.4664416,24 L17.5995511,24 C18.5385586,24 19.2997746,23.2250934 19.2997746,22.2691977 L19.2997746,21.6918841 C19.7507929,21.6921865 20.183424,21.5099317 20.5023422,21.1852777 C20.8212604,20.8606238 21.0002952,20.4202118 21,19.9610818 L21,17.6541046 Z M8.83221424,10.5646475 C8.90208177,10.3188281 9.12447388,10.1506646 9.37583835,10.1535446 L11.932885,10.1535446 L11.932885,10.7308956 C11.9463569,11.0394643 12.1960234,11.2825762 12.4994398,11.2825762 C12.8028561,11.2825762 13.0525227,11.0394643 13.0659945,10.7308956 L13.0659945,10.1535446 L15.6230413,10.1535446 C15.8739925,10.1511789 16.0957903,10.3192388 16.1655468,10.5646475 L17.4049203,14.7686751 L7.59395934,14.7686751 L8.83221424,10.5646475 Z M9.09843345,22.2691977 C9.09843345,22.5875951 8.8452095,22.8458834 8.53243799,22.8465114 L7.39820992,22.8465114 C7.08543841,22.8458834 6.83221446,22.5875951 6.83221446,22.2691977 L6.83221446,21.6918841 L9.09843345,21.6918841 L9.09843345,22.2691977 Z M10.798657,20.5383955 L10.798657,19.3849069 L14.199104,19.3849069 L14.199104,20.5383955 L10.798657,20.5383955 Z M18.1666651,22.2691977 C18.1666651,22.5880393 17.9127595,22.8465114 17.5995511,22.8465114 L16.4664416,22.8465114 C16.1532332,22.8465114 15.8993276,22.5880393 15.8993276,22.2691977 L15.8993276,21.6918841 L18.1666651,21.6918841 L18.1666651,22.2691977 Z M19.2997746,20.5383955 L15.3333321,20.5383955 L15.3333321,19.3849069 C15.3333321,18.7472238 14.8255209,18.2302796 14.199104,18.2302796 L10.798657,18.2302796 C10.172677,18.230908 9.66554718,18.7476683 9.66554749,19.3849069 L9.66554749,20.5383955 L5.69798639,20.5383955 C5.38521488,20.5377675 5.13199056,20.2794792 5.13199056,19.9610818 L5.13199056,18.8075932 L8.53243799,18.8075932 C8.8452095,18.8069652 9.09843406,18.548677 9.09843345,18.2302796 L9.09843345,17.6541046 C9.10769638,17.4419403 9.00178327,17.2417296 8.82267567,17.1328315 C8.64356807,17.0239334 8.42018934,17.0239334 8.24108174,17.1328315 C8.06197414,17.2417296 7.95606103,17.4419403 7.96532396,17.6541046 L5.13199056,17.6541046 C5.13169391,17.1949747 5.31072871,16.7545627 5.62964688,16.4299087 C5.94856505,16.1052548 6.38119615,15.923 6.83221446,15.923302 L18.1666651,15.923302 C19.1056727,15.923302 19.8668887,16.6982089 19.8668887,17.6541046 L17.0335556,17.6541046 C17.0335556,17.3352631 16.77965,17.076791 16.4664416,17.076791 C16.1532332,17.076791 15.8993276,17.3352631 15.8993276,17.6541046 L15.8993276,18.2302796 C15.8993276,18.5491211 16.1532332,18.8075932 16.4664416,18.8075932 L19.8668887,18.8075932 L19.8668887,19.9610818 C19.8668887,20.1141949 19.8071393,20.2610369 19.7007848,20.3693042 C19.5944303,20.4775715 19.4501826,20.5383955 19.2997746,20.5383955 L19.2997746,20.5383955 Z" id="Shape" fill="#FFFFFF"></path>
                <g id="Path">
                    <use fill="#FFFFFF" xlink:href="#path-3"></use>
                    <use fill="url(#linearGradient-2)" xlink:href="#path-3"></use>
                </g>
                <g id="Path">
                    <use fill="#FFFFFF" xlink:href="#path-5"></use>
                    <use fill="url(#linearGradient-4)" xlink:href="#path-5"></use>
                </g>
                <g id="Path">
                    <use fill="#FFFFFF" xlink:href="#path-7"></use>
                    <use fill="url(#linearGradient-6)" xlink:href="#path-7"></use>
                </g>
                <g id="Path">
                    <use fill="#FFFFFF" xlink:href="#path-9"></use>
                    <use fill="url(#linearGradient-8)" xlink:href="#path-9"></use>
                </g>
                <g id="Path">
                    <use fill="#FFFFFF" xlink:href="#path-11"></use>
                    <use fill="url(#linearGradient-10)" xlink:href="#path-11"></use>
                </g>
            </g>
        </g>
    </g>
</svg>