<?xml version="1.0" encoding="UTF-8"?>
<svg width="48px" height="48px" viewBox="0 0 48 48" version="1.1" xmlns="http://www.w3.org/2000/svg" xmlns:xlink="http://www.w3.org/1999/xlink">
    <!-- Generator: Sketch 59.1 (86144) - https://sketch.com -->
    <title>Slice 1</title>
    <desc>Created with Sketch.</desc>
    <defs>
        <linearGradient x1="13.3944793%" y1="50%" x2="82.5016213%" y2="108.422487%" id="linearGradient-1">
            <stop stop-color="#DDCC1C" offset="0%"></stop>
            <stop stop-color="#DCC900" offset="100%"></stop>
        </linearGradient>
        <path d="M43.4074198,11.3345478 L42.5411714,10.4792497 L40.7911747,5.31541856 C41.0926728,5.21937389 41.2787698,4.92164577 41.2302641,4.61293915 C41.1817585,4.30423254 40.9130159,4.0759752 40.596175,4.0743737 L34.3561866,4.0743737 L34.3561866,1.31498994 C34.3554974,0.589022664 33.7587618,0.000679427002 33.022439,0 L1.33374754,0 C0.597424743,0.000679427002 0.00068911865,0.589022664 0,1.31498994 L0,16.256825 C0.0013757752,16.9825113 0.59770973,17.5704585 1.33374754,17.5718149 L2.06624618,17.5718149 L2.06624618,18.9730741 C2.06762196,19.6987604 2.66395591,20.2867077 3.39999372,20.2880641 L4.88374098,20.2880641 C5.14229542,21.6000077 6.16683064,22.6350272 7.49080095,22.9218026 C8.81477127,23.208578 10.1849834,22.692267 10.9774797,21.6079837 C11.7706861,22.6923602 13.1417702,23.2080962 14.4659928,22.9201949 C15.7902155,22.6322935 16.8141426,21.5958544 17.0712185,20.2831344 L33.1249388,20.2831344 C33.4590793,21.9775418 35.0436535,23.1447724 36.7864446,22.9802765 C38.5292357,22.8157806 39.8604152,21.3733423 39.8624264,19.6472068 C39.8624264,19.6324177 39.8624264,19.6188611 39.8624264,19.6040721 L42.6636712,19.6040721 C43.3990237,19.6047589 43.9964764,19.0190149 43.9999599,18.2940119 L43.9999599,12.7481311 C44.0033668,12.217532 43.7897788,11.7079537 43.4074198,11.3345478 Z M41.3136737,10.866229 L37.1549314,10.866229 C37.1433282,10.866229 37.1322002,10.8616844 37.1239955,10.8535951 C37.1157908,10.8455058 37.1111815,10.8345343 37.1111815,10.8230943 L37.1111815,8.06247814 L40.3611755,8.06247814 L41.3136737,10.866229 Z M4.88374098,19.019906 L3.39999372,19.019906 C3.38817066,19.019906 3.37684899,19.0151975 3.36860739,19.0068396 C3.36036579,18.9984818 3.355906,18.987191 3.35622592,18.975539 L3.35622592,17.5718149 L5.55998973,17.5718149 C5.21944659,17.9936927 4.9874358,18.490511 4.88374098,19.019906 L4.88374098,19.019906 Z M8.22248482,21.7312255 C7.07655766,21.7076579 6.15901387,20.7869554 6.15526899,19.6569046 C6.15154697,18.5268538 7.06298772,17.6002774 8.20873484,17.5693501 L8.23498479,17.5693501 C9.38070868,17.5999852 10.2923796,18.5262818 10.288995,19.6563028 C10.2855916,20.7863238 9.36837263,21.7072809 8.22248482,21.7312255 L8.22248482,21.7312255 Z M13.7337246,21.7312255 C12.5877975,21.7076579 11.6702537,20.7869554 11.6665088,19.6569046 C11.6627868,18.5268538 12.5742275,17.6002774 13.7199747,17.5693501 L13.7499746,17.5693501 C14.8956985,17.5999852 15.8073694,18.5262818 15.8039849,19.6563028 C15.8005815,20.7863238 14.8833624,21.7072809 13.7374746,21.7312255 L13.7337246,21.7312255 Z M33.1249388,19.019906 L17.0712185,19.019906 C16.9681284,18.4912946 16.7365047,17.9952324 16.3962197,17.5742798 L28.8886967,17.5742798 C29.2449197,17.5742798 29.5336955,17.2895653 29.5336955,16.9383521 C29.5336955,16.587139 29.2449197,16.3024245 28.8886967,16.3024245 L1.33374754,16.3024245 C1.3219293,16.3027575 1.31047749,16.2983605 1.30200041,16.2902348 C1.29352334,16.2821091 1.28874762,16.2709466 1.28874762,16.2592898 L1.28874762,1.31498994 C1.28874762,1.2904867 1.30889477,1.27062289 1.33374754,1.27062289 L33.022439,1.27062289 C33.0468023,1.27129039 33.0661983,1.29096003 33.0661889,1.31498994 L33.0661889,13.5837105 L8.22248482,13.5837105 C7.98550189,13.5734171 7.76191294,13.6922052 7.64030463,13.8930105 C7.51869632,14.0938158 7.51869632,14.3442281 7.64030463,14.5450334 C7.76191294,14.7458387 7.98550189,14.8646267 8.22248482,14.8543334 L33.0661889,14.8543334 L33.0661889,16.2999596 L31.6449416,16.2999596 C31.2887186,16.2999596 30.9999428,16.5846741 30.9999428,16.9358873 C30.9999428,17.2871004 31.2887186,17.5718149 31.6449416,17.5718149 L33.8036876,17.5718149 C33.461694,17.9931105 33.2287508,18.4900882 33.1249388,19.019906 Z M36.4624327,21.7312255 C35.3165448,21.7072809 34.3993258,20.7863238 34.3959224,19.6563028 C34.3925379,18.5262818 35.3042088,17.5999852 36.4499327,17.5693501 L36.4674327,17.5693501 C37.6130902,17.5968408 38.5273108,18.5204081 38.5273108,19.6502878 C38.5273108,20.7801675 37.6130902,21.7037348 36.4674327,21.7312255 L36.4624327,21.7312255 Z M42.7124211,18.291547 C42.7124211,18.3033139 42.7076801,18.3145988 42.699241,18.3229193 C42.6908018,18.3312397 42.6793559,18.3359141 42.6674212,18.3359141 L39.5936769,18.3359141 C39.0589538,17.1016372 37.8299812,16.299984 36.4686827,16.2974948 L34.3561687,16.2974948 L34.3561687,14.8543334 L35.7774339,14.8543334 C36.0144169,14.8646267 36.2380058,14.7458387 36.3596141,14.5450334 C36.4812224,14.3442281 36.4812224,14.0938158 36.3596141,13.8930105 C36.2380058,13.6922052 36.0144169,13.5734171 35.7774339,13.5837105 L34.3561687,13.5837105 L34.3561687,5.38936364 L34.3561687,5.38936364 C34.3558488,5.37771161 34.3603085,5.36642085 34.3685501,5.358063 C34.3767917,5.34970515 34.3881134,5.34499659 34.3999365,5.34499659 L39.4461772,5.34499659 L39.9349263,6.79185525 L36.4661827,6.79185525 C36.11065,6.79185525 35.8224338,7.07601799 35.8224338,7.42655049 L35.8224338,10.8230943 C35.8231215,11.5485812 36.4190968,12.136726 37.1549314,12.1380843 L42.4049217,12.1380843 L42.5011715,12.2329804 C42.6393743,12.3682259 42.7168169,12.5524509 42.7161751,12.7444339 L42.7161751,14.2627728 L41.9824225,14.2627728 C41.6375737,14.2777513 41.3658113,14.5577556 41.3658113,14.8980842 C41.3658113,15.2384129 41.6375737,15.5184172 41.9824225,15.5333957 L42.7161751,15.5333957 L42.7124211,18.291547 Z" id="path-2"></path>
    </defs>
    <g id="Page-1" stroke="none" stroke-width="1" fill="none" fill-rule="evenodd">
        <g id="Heavy-Commercial-Vehicles-Finance">
            <rect id="Rectangle" fill-opacity="0" fill="#D8D8D8" x="0" y="0" width="48" height="48"></rect>
            <g id="icon" transform="translate(2.000000, 12.000000)">
                <g id="Shape" fill-rule="nonzero">
                    <use fill="#FFFFFF" xlink:href="#path-2"></use>
                    <use fill="url(#linearGradient-1)" xlink:href="#path-2"></use>
                </g>
                <g id="Group-29" transform="translate(3.000000, 4.500000)" fill="#FFFFFF">
                    <rect id="Rectangle" x="0" y="6" width="25" height="1.3" rx="0.6"></rect>
                    <rect id="Rectangle-Copy" x="9" y="3" width="18" height="1.3" rx="0.6"></rect>
                    <rect id="Rectangle-Copy-2" x="11" y="0" width="18" height="1.3" rx="0.6"></rect>
                </g>
            </g>
        </g>
    </g>
</svg>