<?xml version="1.0" encoding="UTF-8"?>
<svg width="48px" height="48px" viewBox="0 0 48 48" version="1.1" xmlns="http://www.w3.org/2000/svg" xmlns:xlink="http://www.w3.org/1999/xlink">
    <!-- Generator: Sketch 59.1 (86144) - https://sketch.com -->
    <title>Slice 1</title>
    <desc>Created with Sketch.</desc>
    <defs>
        <linearGradient x1="13.3944793%" y1="50%" x2="82.5016213%" y2="263.81084%" id="linearGradient-1">
            <stop stop-color="#DDCC1C" offset="0%"></stop>
            <stop stop-color="#DCC900" offset="100%"></stop>
        </linearGradient>
        <path d="M36.006708,0.411764706 L15.0574827,0.411764706 C14.736314,0.411764706 14.4759553,0.672123216 14.4759553,0.993291715 L14.4759553,17.8694429 L13.3117139,17.8694429 L13.3117139,12.6356998 C13.3120291,12.4812637 13.2509003,12.333045 13.1418086,12.2237307 C13.0327169,12.1144164 12.884623,12.0529857 12.7301866,12.052986 L1.09133246,12.052986 C0.936895981,12.0529857 0.788802091,12.1144164 0.679710382,12.2237307 C0.570618673,12.333045 0.509803922,12.4812637 0.509803922,12.6356998 L0.509803922,32.4171124 C0.512421085,34.6655184 2.33446285,36.4875591 4.58287001,36.4901961 L15.63901,36.4901961 L15.63901,36.4486374 C16.8093046,36.6170026 17.9950331,36.2688308 18.8885097,35.4944697 C19.7819863,34.7201086 20.2951316,33.5958949 20.294789,32.4135521 L20.294789,30.674905 L27.8593914,30.674905 C28.0138279,30.6749053 28.1619218,30.6134746 28.2710135,30.5041603 C28.3801052,30.394846 28.4412339,30.2466273 28.4409187,30.0921912 L28.4409187,29.5106642 L36.006708,29.5106642 C36.3278766,29.5106642 36.5882353,29.2503057 36.5882353,28.9291372 L36.5882353,0.993291715 C36.5882353,0.672123216 36.3278766,0.411764706 36.006708,0.411764706 Z M4.58287001,35.3259343 C2.97691365,35.3246254 1.67535543,34.0230679 1.67404658,32.4171124 L1.67404658,13.2136664 L12.1474724,13.2136664 L12.1474724,32.4171124 C12.1468994,33.5124184 12.5890303,34.561462 13.373427,35.3259343 L4.58287001,35.3259343 Z M19.1305475,32.4171124 C19.0674944,33.9772788 17.7843517,35.2096109 16.2229109,35.2096109 C14.6614701,35.2096109 13.3783274,33.9772788 13.3152743,32.4171124 L13.3152743,19.0324969 L20.7208468,19.0324969 C19.7122869,19.9127326 19.1326327,21.1853756 19.1305475,22.5240325 L19.1305475,32.4171124 Z M27.2778641,29.5071038 L20.294789,29.5071038 L20.294789,28.342863 L25.5285353,28.342863 C25.8497038,28.342863 26.1100623,28.0825045 26.1100623,27.761336 C26.1100623,27.4401675 25.8497038,27.179809 25.5285353,27.179809 L20.294789,27.179809 L20.294789,27.179809 L20.294789,26.0155682 L25.5285353,26.0155682 C25.8497038,26.0155682 26.1100623,25.7552097 26.1100623,25.4340412 C26.1100623,25.1128727 25.8497038,24.8525142 25.5285353,24.8525142 L20.294789,24.8525142 L20.294789,24.8525142 L20.294789,23.6882733 L25.5279419,23.6882733 C25.8494381,23.6882733 26.1100623,23.4276492 26.1100623,23.1061529 C26.1100623,22.7846567 25.8494381,22.5240325 25.5279419,22.5240325 L20.294789,22.5240325 L20.294789,22.5240325 C20.294789,20.5957107 21.8580036,19.0324969 23.7863265,19.0324969 C25.7146495,19.0324969 27.2778641,20.5957107 27.2778641,22.5240325 L27.2778641,29.5071038 Z M33.0966977,20.1967377 L33.0966977,26.0120078 L28.4409187,26.0120078 L28.4409187,22.5240325 C28.4405136,21.7063253 28.2234852,20.9033207 27.8119198,20.1967377 L33.0966977,20.1967377 Z M35.4239938,28.342863 L28.4409187,28.342863 L28.4409187,27.179809 L33.6782251,27.179809 C33.8326612,27.1801242 33.9808801,27.1189955 34.0901944,27.0099038 C34.1995087,26.9008122 34.2609395,26.7527184 34.2609392,26.598282 L34.2609392,19.6152107 C34.2612551,19.4605688 34.1999636,19.3121696 34.090615,19.202821 C33.9812663,19.0934724 33.8328671,19.032181 33.6782251,19.0324969 L26.8565535,19.0324969 C26.0099508,18.2829449 24.9182497,17.8692301 23.7875133,17.8694429 L15.63901,17.8694429 L15.63901,1.57600551 L35.4239938,1.57600551 L35.4239938,28.342863 Z" id="path-2"></path>
    </defs>
    <g id="Page-1" stroke="none" stroke-width="1" fill="none" fill-rule="evenodd">
        <g id="Bills-Discounting">
            <rect id="Rectangle" fill-opacity="0" fill="#D8D8D8" x="0" y="0" width="48" height="48"></rect>
            <g id="icon" transform="translate(6.000000, 5.000000)" fill-rule="nonzero">
                <path d="M5.88257927,21.2000007 L4.54947254,21.2000007 C4.46100942,21.1998208 4.37610767,21.2348361 4.31349093,21.2973251 C4.25087419,21.3598141 4.215686,21.444644 4.215686,21.533107 L4.215686,22.866889 C4.215686,22.955352 4.25087419,23.0401819 4.31349093,23.1026708 C4.37610767,23.1651598 4.46100942,23.2001751 4.54947254,23.2000007 L5.88257927,23.2000007 C6.06654904,23.2000007 6.215686,23.0508581 6.215686,22.866889 L6.215686,21.533107 C6.215686,21.3491378 6.06654904,21.2000007 5.88257927,21.2000007 L5.88257927,21.2000007 Z M5.54947254,22.5331036 L4.88257927,22.5331036 L4.88257927,21.8668924 L5.54947254,21.8668924 L5.54947254,22.5331036 Z" id="Shape" fill="#FFFFFF"></path>
                <path d="M5.88257495,26.1000007 L4.54947278,26.1000007 C4.46089204,26.0998204 4.37588724,26.1349289 4.31325106,26.1975651 C4.25061488,26.2602012 4.21550642,26.345206 4.21568669,26.4337868 L4.21568669,27.7668889 C4.21568669,27.855352 4.25087546,27.9401818 4.31349198,28.0026708 C4.3761085,28.0651598 4.46100996,28.1001751 4.54947278,28.1000007 L5.88257495,28.1000007 C6.06654409,28.1000007 6.21568669,27.9508581 6.21568669,27.7668889 L6.21568669,26.4337868 C6.21586107,26.345324 6.18084584,26.2604225 6.11835684,26.197806 C6.05586785,26.1351895 5.97103795,26.1000007 5.88257495,26.1000007 L5.88257495,26.1000007 Z M5.54946936,27.4331036 L4.88257837,27.4331036 L4.88257837,26.7668924 L5.54946936,26.7668924 L5.54946936,27.4331036 Z" id="Shape" fill="#FFFFFF"></path>
                <rect id="Rectangle" fill="#FFFFFF" x="3.21568627" y="15.9411765" width="8.11764706" height="1" rx="0.5"></rect>
                <rect id="Rectangle" fill="#FFFFFF" x="6.7254902" y="21.5490196" width="3.60784314" height="1" rx="0.5"></rect>
                <rect id="Rectangle" fill="#FFFFFF" x="6.7254902" y="26.5686275" width="3.60784314" height="1" rx="0.5"></rect>
                <g id="Shape">
                    <use fill="#FFFFFF" xlink:href="#path-2"></use>
                    <use fill="url(#linearGradient-1)" xlink:href="#path-2"></use>
                </g>
                <rect id="Rectangle" fill="#FFFFFF" x="17" y="9.5" width="17.1372549" height="1" rx="0.5"></rect>
                <rect id="Rectangle-Copy-3" fill="#FFFFFF" x="17" y="6" width="17.1372549" height="1" rx="0.5"></rect>
                <rect id="Rectangle" fill="#FFFFFF" x="17" y="13" width="17.1372549" height="1" rx="0.5"></rect>
            </g>
        </g>
    </g>
</svg>