<?xml version="1.0" encoding="UTF-8"?>
<svg width="48px" height="48px" viewBox="0 0 48 48" version="1.1" xmlns="http://www.w3.org/2000/svg" xmlns:xlink="http://www.w3.org/1999/xlink">
    <!-- Generator: Sketch 59.1 (86144) - https://sketch.com -->
    <title>Slice 1</title>
    <desc>Created with Sketch.</desc>
    <defs>
        <linearGradient x1="13.3944793%" y1="50%" x2="82.5016213%" y2="123.58894%" id="linearGradient-1">
            <stop stop-color="#DDCC1C" offset="0%"></stop>
            <stop stop-color="#DCC900" offset="100%"></stop>
        </linearGradient>
        <path d="M37.3099154,26.7322519 L37.3099154,23.1964649 C37.3073331,22.2211452 36.5093523,21.431128 35.5242011,21.4285714 L9.92857143,21.4285714 C8.94342028,21.431128 8.14543947,22.2211452 8.14285714,23.1964649 L8.14285714,38.5178208 C8.14672096,39.4926125 8.94395355,40.281889 9.92857143,40.2857143 L35.5242011,40.2857143 C36.508819,40.281889 37.3060516,39.4926125 37.3099154,38.5178208 L37.3099154,34.9820338 C38.9534037,34.9820338 40.2857143,33.6630193 40.2857143,32.0359324 L40.2857143,29.6783533 C40.2857143,28.8969987 39.9721935,28.1476462 39.414123,27.595145 C38.8560524,27.0426438 38.0991463,26.7322519 37.3099154,26.7322519 Z M36.118656,38.5178208 C36.118656,38.8430414 35.8526994,39.1068649 35.5242011,39.1075063 L9.92857143,39.1075063 C9.59961423,39.1075063 9.33294173,38.8434951 9.33294173,38.5178208 L9.33294173,23.1964649 C9.33294173,22.8707906 9.59961423,22.6067794 9.92857143,22.6067794 L35.5242011,22.6067794 C35.8526994,22.6074209 36.118656,22.8712443 36.118656,23.1964649 L36.118656,26.7322519 L32.5472274,26.7322519 C31.7579965,26.7322519 31.0010904,27.0426438 30.4430199,27.595145 C29.8849493,28.1476462 29.5714286,28.8969987 29.5714286,29.6783533 L29.5714286,32.0359324 C29.5714286,33.6630193 30.9037391,34.9820338 32.5472274,34.9820338 L36.118656,34.9820338 L36.118656,38.5178208 Z M39.0956297,32.0359324 C39.0917659,33.0107241 38.2945333,33.8000006 37.3099154,33.8038259 L32.5472274,33.8038259 C31.5626096,33.8000006 30.765377,33.0107241 30.7615132,32.0359324 L30.7615132,29.6783533 C30.765377,28.7035616 31.5626096,27.9142851 32.5472274,27.9104599 L37.3099154,27.9104599 C38.2945333,27.9142851 39.0917659,28.7035616 39.0956297,29.6783533 L39.0956297,32.0359324 Z" id="path-2"></path>
        <linearGradient x1="13.3944793%" y1="50%" x2="82.5016213%" y2="263.81084%" id="linearGradient-3">
            <stop stop-color="#DDCC1C" offset="0%"></stop>
            <stop stop-color="#DCC900" offset="100%"></stop>
        </linearGradient>
        <path d="M5.35714286,10.7142857 C8.31581116,10.7142857 10.7142857,8.31581116 10.7142857,5.35714286 C10.7142857,2.39847455 8.31581116,-3.01980663e-14 5.35714286,-3.01980663e-14 C2.39847455,-3.01980663e-14 5.5067062e-14,2.39847455 5.5067062e-14,5.35714286 C5.5067062e-14,8.31581116 2.39847455,10.7142857 5.35714286,10.7142857 Z M5.35714286,1.1912594 C7.04266749,1.1912594 8.56220242,2.20665778 9.20711497,3.76392497 C9.85202752,5.32119216 9.49529633,7.11361036 8.30328241,8.30528822 C7.11126849,9.49696608 5.31874977,9.85319185 3.76166449,9.20784023 C2.2045792,8.5624886 1.18960939,7.04266743 1.19008442,5.35714286 C1.19073329,3.05619893 3.05619884,1.1912594 5.35714286,1.1912594 Z" id="path-4"></path>
        <path d="M10.7142857,5.35714286 C10.7142857,2.39847455 8.31581116,3.99680289e-14 5.35714286,3.99680289e-14 C2.39847455,3.99680289e-14 3.99680289e-14,2.39847455 3.99680289e-14,5.35714286 C3.99680289e-14,8.31581116 2.39847455,10.7142857 5.35714286,10.7142857 C8.31393336,10.7097572 10.7097572,8.31393336 10.7142857,5.35714286 Z M1.19008459,5.35714286 C1.19008459,3.05574012 3.05574012,1.19008459 5.35714286,1.19008459 C7.65854559,1.19008459 9.52420113,3.05574012 9.52420113,5.35714286 C9.52420113,7.65854559 7.65854559,9.52420113 5.35714286,9.52420113 C4.25197029,9.52420113 3.19206271,9.08517303 2.4105877,8.30369802 C1.62911268,7.522223 1.19008459,6.46231542 1.19008459,5.35714286 Z" id="path-5"></path>
        <path d="M5.35714286,10.7142857 C8.31581116,10.7142857 10.7142857,8.31581116 10.7142857,5.35714286 C10.7142857,2.39847455 8.31581116,3.99680289e-14 5.35714286,3.99680289e-14 C2.39847455,3.99680289e-14 5.32907052e-14,2.39847455 5.32907052e-14,5.35714286 C0.000648558528,8.31554248 2.39874324,10.7136372 5.35714286,10.7142857 L5.35714286,10.7142857 Z M5.35714286,1.19008459 C7.65854559,1.19008459 9.52420113,3.05574012 9.52420113,5.35714286 C9.52420113,7.65854559 7.65854559,9.52420113 5.35714286,9.52420113 C3.05574012,9.52420113 1.19008459,7.65854559 1.19008459,5.35714286 C1.19008459,3.05574012 3.05574012,1.19008459 5.35714286,1.19008459 Z" id="path-6"></path>
        <linearGradient x1="49.6339448%" y1="50%" x2="50.3250162%" y2="263.81084%" id="linearGradient-7">
            <stop stop-color="#DDCC1C" offset="0%"></stop>
            <stop stop-color="#DCC900" offset="100%"></stop>
        </linearGradient>
        <rect id="path-8" x="11.1428571" y="24.4285714" width="1.28571429" height="12.8571429"></rect>
    </defs>
    <g id="Page-1" stroke="none" stroke-width="1" fill="none" fill-rule="evenodd">
        <g id="Corporate-Deposits">
            <rect id="Rectangle" fill-opacity="0" fill="#D8D8D8" x="0" y="0" width="48" height="48"></rect>
            <g id="icon" transform="translate(2.000000, 1.000000)">
                <rect id="Rectangle" x="0" y="0" width="45" height="45"></rect>
                <g id="Shape" fill-rule="nonzero">
                    <use fill="#FFFFFF" xlink:href="#path-2"></use>
                    <use fill="url(#linearGradient-1)" xlink:href="#path-2"></use>
                </g>
                <path d="M33.8571429,29.1428571 C32.910369,29.1428571 32.1428571,29.910369 32.1428571,30.8571429 C32.1428571,31.8039167 32.910369,32.5714286 33.8571429,32.5714286 C34.8039167,32.5714286 35.5714286,31.8039167 35.5714286,30.8571429 C35.5714286,29.910369 34.8039167,29.1428571 33.8571429,29.1428571 L33.8571429,29.1428571 Z M33.8571429,31.4289485 C33.6257674,31.4294037 33.4169209,31.2903778 33.3280609,31.0767456 C33.239201,30.8631134 33.2878434,30.6169853 33.4512892,30.4532165 C33.6147351,30.2894476 33.8607667,30.2403193 34.0745739,30.3287573 C34.2883811,30.4171953 34.4278195,30.625767 34.4278195,30.8571429 C34.4278195,31.1725019 34.1725012,31.4283254 33.8571429,31.4289485 Z" id="Shape" fill="#FFFFFF" fill-rule="nonzero"></path>
                <g id="Group-31" transform="translate(17.142857, 7.714286)">
                    <g id="Shape" fill-rule="nonzero">
                        <use fill="#FFFFFF" xlink:href="#path-4"></use>
                        <use fill="url(#linearGradient-3)" xlink:href="#path-4"></use>
                    </g>
                    <path d="M7.60714286,4.76298701 L7.60714286,6.80844156 L6.78896104,6.80844156 L6.78896104,6.32619395 L7.17321151,6.32619395 L7.17321151,4.76298701 L7.60714286,4.76298701 Z M5.1525974,6.80844156 L5.56168831,6.80844156 L5.56168831,6.39935065 L5.1525974,6.39935065 L5.1525974,6.80844156 Z M5.97077922,6.80844156 L6.37987013,6.80844156 L6.37987013,6.39935065 L5.97077922,6.39935065 L5.97077922,6.80844156 Z M6.78896104,5.99025974 L6.78896104,4.67639333 L6.27015939,4.67639333 L6.27015939,5.48429876 L5.67232881,5.48429876 L5.67232881,3.53571429 L5.1525974,3.53571429 L5.1525974,5.99025974 C5.69836187,5.99025974 6.24412633,5.99025974 6.78896104,5.99025974 Z M4.74350649,3.53571429 L4.74350649,6.80844156 L3.10714286,6.80844156 L3.10714286,5.5016954 L3.56268433,5.5016954 L3.56268433,6.30432071 L4.28796502,6.30432071 L4.28796502,3.53571429 L4.74350649,3.53571429 Z" id="Shape" fill="#FFFFFF"></path>
                </g>
                <g id="Group-32" transform="translate(4.714286, 4.714286)">
                    <g id="Shape" fill-rule="nonzero">
                        <use fill="#FFFFFF" xlink:href="#path-5"></use>
                        <use fill="url(#linearGradient-3)" xlink:href="#path-5"></use>
                    </g>
                    <path d="M7.66071429,4.38798701 L7.66071429,6.43344156 L6.84253247,6.43344156 L6.84253247,5.95119395 L7.22678294,5.95119395 L7.22678294,4.38798701 L7.66071429,4.38798701 Z M5.20616883,6.43344156 L5.61525974,6.43344156 L5.61525974,6.02435065 L5.20616883,6.02435065 L5.20616883,6.43344156 Z M6.02435065,6.43344156 L6.43344156,6.43344156 L6.43344156,6.02435065 L6.02435065,6.02435065 L6.02435065,6.43344156 Z M6.84253247,5.61525974 L6.84253247,4.30139333 L6.32373081,4.30139333 L6.32373081,5.10929876 L5.72590024,5.10929876 L5.72590024,3.16071429 L5.20616883,3.16071429 L5.20616883,5.61525974 C5.75193329,5.61525974 6.29769776,5.61525974 6.84253247,5.61525974 Z M4.79707792,3.16071429 L4.79707792,6.43344156 L3.16071429,6.43344156 L3.16071429,5.1266954 L3.61625576,5.1266954 L3.61625576,5.92932071 L4.34153645,5.92932071 L4.34153645,3.16071429 L4.79707792,3.16071429 Z" id="Shape" fill="#FFFFFF"></path>
                </g>
                <g id="Group-25" transform="translate(29.571429, 4.714286)">
                    <g id="Shape" fill-rule="nonzero">
                        <use fill="#FFFFFF" xlink:href="#path-6"></use>
                        <use fill="url(#linearGradient-3)" xlink:href="#path-6"></use>
                    </g>
                    <path d="M7.55357143,4.38798701 L7.55357143,6.43344156 L6.73538961,6.43344156 L6.73538961,5.95119395 L7.11964008,5.95119395 L7.11964008,4.38798701 L7.55357143,4.38798701 Z M5.09902597,6.43344156 L5.50811688,6.43344156 L5.50811688,6.02435065 L5.09902597,6.02435065 L5.09902597,6.43344156 Z M5.91720779,6.43344156 L6.3262987,6.43344156 L6.3262987,6.02435065 L5.91720779,6.02435065 L5.91720779,6.43344156 Z M6.73538961,5.61525974 L6.73538961,4.30139333 L6.21658796,4.30139333 L6.21658796,5.10929876 L5.61875738,5.10929876 L5.61875738,3.16071429 L5.09902597,3.16071429 L5.09902597,5.61525974 C5.64479044,5.61525974 6.1905549,5.61525974 6.73538961,5.61525974 Z M4.68993506,3.16071429 L4.68993506,6.43344156 L3.05357143,6.43344156 L3.05357143,5.1266954 L3.5091129,5.1266954 L3.5091129,5.92932071 L4.23439359,5.92932071 L4.23439359,3.16071429 L4.68993506,3.16071429 Z" id="Shape" fill="#FFFFFF"></path>
                </g>
                <rect id="Rectangle" fill="#FFFFFF" fill-rule="nonzero" x="8.14285714" y="16.7142857" width="1.28571429" height="1.28571429"></rect>
                <rect id="Rectangle" fill="#FFFFFF" fill-rule="nonzero" x="8.14285714" y="18.8571429" width="1.28571429" height="1.28571429"></rect>
                <rect id="Rectangle" fill="#FFFFFF" fill-rule="nonzero" x="10.7142857" y="16.7142857" width="1.28571429" height="1.28571429"></rect>
                <rect id="Rectangle" fill="#FFFFFF" fill-rule="nonzero" x="35.5714286" y="16.7142857" width="1.28571429" height="1.28571429"></rect>
                <rect id="Rectangle" fill="#FFFFFF" fill-rule="nonzero" x="35.5714286" y="18.8571429" width="1.28571429" height="1.28571429"></rect>
                <rect id="Rectangle" fill="#FFFFFF" fill-rule="nonzero" x="33" y="16.7142857" width="1.28571429" height="1.28571429"></rect>
                <g id="Rectangle" fill-rule="nonzero">
                    <use fill="#FFFFFF" xlink:href="#path-8"></use>
                    <use fill="url(#linearGradient-7)" xlink:href="#path-8"></use>
                </g>
            </g>
        </g>
    </g>
</svg>