<?xml version="1.0" encoding="UTF-8"?>
<svg width="48px" height="48px" viewBox="0 0 48 48" version="1.1" xmlns="http://www.w3.org/2000/svg" xmlns:xlink="http://www.w3.org/1999/xlink">
    <!-- Generator: Sketch 59.1 (86144) - https://sketch.com -->
    <title>Slice 1</title>
    <desc>Created with Sketch.</desc>
    <defs>
        <linearGradient x1="27.5126056%" y1="50%" x2="69.9662991%" y2="263.81084%" id="linearGradient-1">
            <stop stop-color="#DDCC1C" offset="0%"></stop>
            <stop stop-color="#DCC900" offset="100%"></stop>
        </linearGradient>
        <path d="M35.9438294,22.9405306 L35.9438294,22.2646279 L36.5690633,22.2646279 C36.9143704,22.2646279 37.1942972,21.9890251 37.1942972,21.6490518 C37.1942972,21.3090784 36.9143704,21.0334756 36.5690633,21.0334756 L35.9438294,21.0334756 L35.9438294,9.88539111 C37.1936115,9.662986 38.0756423,8.55363969 37.9948735,7.30575564 C37.9141046,6.05787159 36.896185,5.06772925 35.6278385,5.00331296 C34.359492,4.93889666 33.2434961,5.82066251 33.0327404,7.05374072 L19.8328024,21.0334756 L19.6527351,21.0334756 C19.1528001,21.0254049 18.6709304,21.2173776 18.3173755,21.5654713 C17.9638206,21.913565 17.7688361,22.3879914 17.7770334,22.8802041 L17.7770334,27.1978554 L11.5697113,27.1978554 C10.1540335,27.2045921 9.00809292,28.3328318 9.00125047,29.7266423 L9.00125047,32.7491213 C8.99131302,32.9151888 9.05398793,33.0775124 9.17346455,33.1951435 C9.29294116,33.3127746 9.45781139,33.3744814 9.62648436,33.3646975 L19.0250002,33.3646975 L19.0250002,33.9802736 L13.0727736,33.9802736 C10.8234428,33.9802736 9,35.7755505 9,37.9901368 C9,40.2047231 10.8234428,42 13.0727736,42 L32.4975402,42 C34.7468709,42 36.5703137,40.2047231 36.5703137,37.9901368 C36.5703137,35.7755505 34.7468709,33.9802736 32.4975402,33.9802736 L26.5453135,33.9802736 L26.5453135,33.3646975 L28.4210152,33.3646975 C28.5896881,33.3744814 28.7545584,33.3127746 28.874035,33.1951435 C28.9935116,33.0775124 29.0561865,32.9151888 29.0462491,32.7491213 L29.0462491,30.5195044 C29.0861009,30.4463054 29.1079447,30.3649184 29.1100229,30.281892 L29.1100229,25.465624 C29.1010202,23.9833361 28.3531324,22.5999458 27.1092745,21.7647801 C27.0004838,21.6933732 26.8879417,21.626891 26.7741491,21.5665646 L28.7748976,18.9343608 C28.8787673,18.8586211 28.9578752,18.7546306 29.0024827,18.6351908 L33.08526,13.2772158 C33.2020868,13.1977689 33.2897885,13.0833591 33.3353536,12.9509604 L34.6921111,11.1657896 L34.6921111,21.0334756 L34.0668772,21.0334756 C33.7215701,21.0334756 33.4416433,21.3090784 33.4416433,21.6490518 C33.4416433,21.9890251 33.7215701,22.2646279 34.0668772,22.2646279 L34.6921111,22.2646279 L34.6921111,23.4957803 C34.7012908,23.8319388 34.9759125,24.1023185 35.317345,24.1113564 C36.0079593,24.1113564 36.5678128,24.6625621 36.5678128,25.3425088 C36.5678128,26.0224555 36.0079593,26.5736611 35.317345,26.5736611 C34.6267307,26.5736611 34.0668772,26.0224555 34.0668772,25.3425088 C34.0668772,25.0025355 33.7869505,24.7269326 33.4416433,24.7269326 C33.0963362,24.7269326 32.8164094,25.0025355 32.8164094,25.3425088 C32.8277751,26.6192763 33.8285183,27.6756744 35.1213835,27.7756707 C36.4142486,27.875667 37.570263,26.9860827 37.7839879,25.7267248 C37.9977127,24.4673669 37.1982341,23.2560903 35.9425789,22.9368371 L35.9438294,22.9405306 Z M10.2592211,29.6330747 C10.326356,28.9647619 10.8878588,28.449913 11.5697113,28.43147 L14.0143758,28.43147 C14.0109554,29.1100169 13.4531006,29.6592548 12.763908,29.6626224 L10.2629725,29.6626224 C10.261165,29.6528495 10.2599126,29.6429849 10.2592211,29.6330747 L10.2592211,29.6330747 Z M32.4975402,35.2163506 C34.0548754,35.2163506 35.317345,36.4593194 35.317345,37.9925991 C35.317345,39.5258788 34.0548754,40.7688477 32.4975402,40.7688477 L13.074024,40.7688477 C11.5166888,40.7688477 10.2542192,39.5258788 10.2542192,37.9925991 C10.2542192,36.4593194 11.5166888,35.2163506 13.074024,35.2163506 L32.4975402,35.2163506 Z M20.2792194,33.9851982 L20.2792194,33.3696221 L25.2923448,33.3696221 L25.2923448,33.9851982 L20.2792194,33.9851982 Z M27.7982822,32.1384697 L10.2517183,32.1384697 L10.2517183,30.9073174 L12.7526538,30.9073174 C14.1310389,30.9005823 15.2467486,29.8021065 15.2535894,28.4450127 L18.3797589,28.4450127 C18.5484318,28.4547966 18.7133021,28.3930898 18.8327787,28.2754587 C18.9522553,28.1578276 19.0149302,27.9955041 19.0049928,27.8294365 L19.0049928,22.8802041 C19.0049928,22.5402308 19.2849195,22.2646279 19.6302266,22.2646279 L20.9469692,22.2646279 L20.9469692,26.0270295 C20.9469692,27.3812971 21.7610238,28.5570476 23.0139925,28.989182 L27.7757738,30.6832477 L27.7982822,32.1384697 Z M27.5481887,24.3034162 C27.7055949,24.6169776 27.790979,24.9608043 27.7982822,25.3104988 L27.7982822,25.3314284 C27.7982822,25.3782122 27.7982822,25.4262271 27.7982822,25.4754732 L27.7982822,29.3560654 L23.4128917,27.8146627 C22.6635757,27.5257534 22.168366,26.8168405 22.1624239,26.0245672 L22.1624239,22.2646279 L24.5383127,22.2646279 C25.8696819,22.2715015 27.0622505,23.0768681 27.5481887,24.2972604 L27.5481887,24.3034162 Z M25.5574439,21.1393547 C25.4161411,21.1110382 25.2723373,21.0888774 25.1247821,21.0716413 C24.9311456,21.0468734 24.7360774,21.0345358 24.5408136,21.0347067 L21.595962,21.0347067 L22.7901587,19.776469 L26.9954819,19.2483047 L25.5574439,21.1393547 Z M24.1494172,18.3446389 L27.5256802,14.7952267 L27.7407607,17.8878813 L24.1494172,18.3446389 Z M28.9349574,16.697357 L28.738634,13.8780182 L31.3158481,13.5653055 L28.9349574,16.697357 Z M29.7014942,12.4978964 L31.9085698,10.1747119 L32.0598764,12.212269 L29.7014942,12.4978964 Z M33.2440694,11.024207 L33.0815086,8.93124805 L33.3128452,8.68501758 C33.3921057,8.8016659 33.4789882,8.91311523 33.5729425,9.01865986 C33.7778523,9.26245653 34.027754,9.46588992 34.309468,9.61823105 L33.2440694,11.024207 Z M34.9096925,8.54097275 L34.9096925,8.54097275 C34.8830311,8.52673266 34.8571521,8.51111632 34.8321635,8.49418896 C34.5127893,8.28547106 34.3035748,7.94832618 34.2606997,7.57328701 C34.2606997,7.53512129 34.2544474,7.49572441 34.2544474,7.45017178 C34.2547146,6.89640377 34.6304734,6.41095534 35.172719,6.26384274 C35.7149646,6.11673014 36.2902451,6.34415925 36.5785777,6.81962939 C36.8669103,7.29509953 36.7973336,7.90159274 36.4085475,8.30176522 C36.0197614,8.7019377 35.40745,8.79730299 34.9121935,8.53481699 L34.9096925,8.54097275 Z" id="path-2"></path>
    </defs>
    <g id="Page-1" stroke="none" stroke-width="1" fill="none" fill-rule="evenodd">
        <g id="Heavy-Equipment-Finance">
            <rect id="Rectangle" fill-opacity="0" fill="#D8D8D8" x="0" y="0" width="48" height="48"></rect>
            <path d="M13.4753569,36.0085543 C13.4106459,36.002853 13.3484726,36.0005725 13.2786863,36.0005725 C12.4711335,35.9832408 11.7165317,36.3604935 11.307085,36.9862471 C10.8976383,37.6120008 10.8976383,38.3879992 11.307085,39.0137529 C11.7165317,39.6395065 12.4711335,40.0167592 13.2786863,39.9994275 C13.3446661,39.9994275 13.4055705,39.9994275 13.4753569,39.9914457 C13.5174054,39.9966531 13.5597954,39.9993196 13.6022412,39.9994275 L31.4041031,39.9994275 C31.4415475,39.9993245 31.4789099,39.9962722 31.5157612,39.9903055 C31.5842787,39.9960067 31.6527962,39.9994275 31.7213137,39.9994275 C32.5288665,40.0167592 33.2834683,39.6395065 33.692915,39.0137529 C34.1023617,38.3879992 34.1023617,37.6120008 33.692915,36.9862471 C33.2834683,36.3604935 32.5288665,35.9832408 31.7213137,36.0005725 C31.6553339,36.0005725 31.5944295,36.0005725 31.5246431,36.0085543 C31.4847733,36.0029382 31.4444583,36.0002687 31.4041031,36.0005725 L13.5971658,36.0005725 C13.5563905,36.0002973 13.5156565,36.0029665 13.4753569,36.0085543 Z M30.7684129,37.9139112 L30.7684129,37.9139112 C30.8204198,37.4610939 31.25804,37.1242547 31.7639314,37.1476537 C32.2698228,37.1710528 32.6666482,37.5464877 32.6666482,38.0017104 C32.6666482,38.4569331 32.2698228,38.832368 31.7639314,38.855767 C31.25804,38.879166 30.8204198,38.5423268 30.7684129,38.0895096 L30.7684129,38.0826681 C30.7664846,38.0549491 30.7664846,38.0271489 30.7684129,37.9994299 C30.7664674,37.9709504 30.7664674,37.9423906 30.7684129,37.9139112 L30.7684129,37.9139112 Z M15.3139098,37.1419623 L29.7140047,37.1419623 C29.4189812,37.6812645 29.4189812,38.3130342 29.7140047,38.8523365 L15.3139098,38.8523365 C15.5665557,38.3048154 15.5665557,37.6894833 15.3139098,37.1419623 Z M14.2265117,37.9139112 C14.2265117,37.9139112 14.2265117,37.9139112 14.2265117,37.9139112 C14.2265117,37.9412772 14.2265117,37.9697834 14.2265117,37.9971494 C14.2265117,38.0245154 14.2265117,38.0530216 14.2265117,38.0803876 C14.2265117,38.0803876 14.2265117,38.0803876 14.2265117,38.0872291 C14.173525,38.5408868 13.7345838,38.8778561 13.2276848,38.8540152 C12.7207858,38.8301742 12.3233854,38.4538694 12.3233854,37.9977195 C12.3233854,37.5415696 12.7207858,37.1652648 13.2276848,37.1414239 C13.7345838,37.1175829 14.173525,37.4545522 14.2265117,37.9082099 L14.2265117,37.9139112 Z" id="Shape" fill="#FFFFFF" fill-rule="nonzero"></path>
            <g id="Shape" fill-rule="nonzero">
                <use fill="#FFFFFF" xlink:href="#path-2"></use>
                <use fill="url(#linearGradient-1)" xlink:href="#path-2"></use>
            </g>
        </g>
    </g>
</svg>