<?xml version="1.0" encoding="UTF-8"?>
<svg width="48px" height="48px" viewBox="0 0 48 48" version="1.1" xmlns="http://www.w3.org/2000/svg" xmlns:xlink="http://www.w3.org/1999/xlink">
    <!-- Generator: Sketch 59.1 (86144) - https://sketch.com -->
    <title>Slice 1</title>
    <desc>Created with Sketch.</desc>
    <defs>
        <linearGradient x1="13.3944793%" y1="50%" x2="82.5016213%" y2="263.81084%" id="linearGradient-1">
            <stop stop-color="#DDCC1C" offset="0%"></stop>
            <stop stop-color="#DCC900" offset="100%"></stop>
        </linearGradient>
        <path d="M35.4694737,31.0037171 C37.68375,27.8760197 39,23.6052632 39,19.5 C39,14.7532895 37.2655263,9.97450658 34.3302632,6.556875 L35.6952632,5.37532895 C35.9357899,5.16700311 36.0215515,4.83115647 35.9103559,4.53301505 C35.7991603,4.23487363 35.5144195,4.03721051 35.1962171,4.03726974 L31.7067434,4.03726974 C28.4623026,1.50611842 23.9221382,0 19.5,0 C14.9008224,0 10.2336513,1.63440789 6.87246711,4.39904605 L5.77302632,3.47151316 C5.55110052,3.28337977 5.24131002,3.23829354 4.97496536,3.35536511 C4.7086207,3.47243669 4.53237024,3.73116183 4.52092105,4.021875 L4.40032895,6.87118421 C1.64082237,10.2028618 0,14.9008224 0,19.5 C0,23.5385526 1.27519737,27.7297697 3.436875,30.8664474 L2.65302632,31.5155921 C2.42346048,31.7050165 2.32544037,32.0109161 2.40216219,32.2984849 C2.478884,32.5860537 2.71625586,32.8024726 3.00967105,32.8523684 L5.42664474,33.2680263 C8.96743421,36.8716776 14.2632237,39 19.5,39 C24.6136184,39 29.6746382,37.0115132 33.1820724,33.6541776 L34.5098684,34.5958224 C34.7508943,34.7682314 35.0701008,34.7849884 35.3278537,34.6387632 C35.5856066,34.492538 35.7349902,34.2099462 35.7106579,33.9146053 L35.4694737,31.0037171 Z M5.97572368,5.63575658 L6.38625,5.98085526 C6.67732228,6.22174445 7.10019659,6.2157655 7.38434211,5.96674342 C10.5017763,3.18414474 15.0303947,1.52407895 19.5,1.52407895 C22.8247419,1.53111513 26.0913007,2.39680624 28.9831579,4.03726974 L27.2178947,4.03726974 C26.9864517,4.03701577 26.7674797,4.14213399 26.6229288,4.32288507 C26.4783779,4.50363615 26.4239703,4.74036044 26.4750987,4.96608553 L26.7765789,6.30542763 C24.5183995,5.17074679 22.0272197,4.57693949 19.5,4.57095395 C15.8360526,4.57095395 12.2324013,5.91414474 9.95141447,7.78973684 C9.76472497,7.9421769 9.66021595,8.1732614 9.66903402,8.41412066 C9.67785208,8.65497992 9.79897909,8.87780369 9.99631579,9.01618421 L10.5094737,9.40105263 L5.78585526,10.3273026 L5.97572368,5.63575658 Z M26.9472039,29.4770724 L27.9375987,30.1364803 C25.6694408,31.8606908 22.5276316,32.90625 19.5,32.90625 C16.3274013,32.90625 13.0059868,31.7516447 10.7455263,29.8888816 L10.5312829,26.3763158 C10.5130716,26.0756795 10.3194971,25.8139755 10.0373613,25.708556 C9.75522557,25.6031366 9.43746908,25.6737828 9.22657895,25.8888158 L8.17075658,26.9664474 C6.87631579,24.8881579 6.09375,22.1132566 6.09375,19.5 C6.09375,16.5788487 7.07131579,13.4703947 8.65953947,11.3176974 L12.4607566,10.5736184 C12.7549734,10.5158444 12.987966,10.2909084 13.0560538,9.99890593 C13.1241415,9.70690349 13.0146681,9.40211286 12.7763487,9.22016447 L11.7051316,8.40296053 L11.7846711,8.33881579 C13.9322368,6.92763158 16.8136184,6.09375 19.5,6.09375 C22.2325658,6.09375 25.1665461,6.94944079 27.2358553,8.34009868 L28.0646053,12.0207237 C28.1252983,12.2902635 28.3271306,12.5058383 28.5920946,12.5841292 C28.8570585,12.66242 29.1436436,12.5911615 29.3410855,12.3978947 L30.3802303,11.3792763 C31.9517763,13.5794408 32.90625,16.6122039 32.90625,19.5 C32.90625,22.0080592 32.1891118,24.7290789 31.0242434,26.6726645 L27.105,28.12875 C26.8365117,28.2283938 26.6465585,28.4701558 26.6132699,28.7545969 C26.5799814,29.0390379 26.7089787,29.3181272 26.9472039,29.4770724 Z M4.90065789,31.6310526 L4.95710526,31.5848684 C5.2709667,31.3244177 5.32411799,30.8630193 5.07769737,30.5380263 C2.851875,27.6040461 1.52407895,23.4821053 1.52407895,19.5051316 C1.53236287,16.0291071 2.48674704,12.620909 4.28486842,9.64608553 L4.21944079,11.2317434 C4.20969029,11.465642 4.30798896,11.6910429 4.48603243,11.8430434 C4.6640759,11.995044 4.90210423,12.0567746 5.13157895,12.0104605 L6.59151316,11.724375 C5.27291628,14.1043295 4.57783336,16.7791851 4.57095395,19.5 C4.57095395,22.7996053 5.64858553,26.2082566 7.45618421,28.6188158 C7.58940222,28.7969753 7.79381947,28.908027 8.01578537,28.9228247 C8.23775127,28.9376224 8.4551009,28.8546885 8.61078947,28.6957895 L9.11625,28.1826316 L9.37282895,32.4020724 L4.90065789,31.6310526 Z M33.6375,32.1070066 C33.3329795,31.8189057 32.8539088,31.8274605 32.5598684,32.12625 C29.3244079,35.4758882 24.4429934,37.4759211 19.5,37.4759211 C15.4935197,37.4759211 11.4062171,36.0903947 8.30032895,33.7555263 L10.0630263,34.0582895 C10.2924653,34.0975242 10.527254,34.0297436 10.7004813,33.8742639 C10.8737086,33.7187843 10.9663751,33.4926585 10.9520724,33.2603289 L10.8661184,31.8619737 C13.3036184,33.4655921 16.4659539,34.4277632 19.5,34.4277632 C23.2460526,34.4277632 27.1627303,32.9729605 29.7221053,30.6278289 C29.8947173,30.4700476 29.9851695,30.2416441 29.9673866,30.0084626 C29.9496037,29.775281 29.8255619,29.5632354 29.6310197,29.4334539 L29.0344737,29.0357566 L33.6413487,27.3256579 L34.0544408,32.4059211 L33.6375,32.1070066 Z M35.2603618,28.4417763 L35.0781908,26.1979934 C35.0591043,25.9597255 34.9293247,25.7442191 34.7276529,25.6159054 C34.5259811,25.4875917 34.2757879,25.4613404 34.051875,25.545 L33.125625,25.8900987 C33.9790583,23.8674233 34.4221093,21.6953396 34.4290461,19.5 C34.4290461,15.9720395 33.1307566,12.2349671 31.0409211,9.75 C30.9043842,9.58775862 30.7064207,9.48974471 30.4946189,9.4795198 C30.2828171,9.46929488 30.0763328,9.54778372 29.9248026,9.69611842 L29.25,10.3529605 L28.1685197,5.56006579 L33.1512829,5.56006579 L32.7664145,5.88976974 L32.7343421,5.92055921 L32.7176645,5.93595395 C32.4122825,6.224832 32.3985058,6.70644004 32.686875,7.01230263 C35.6824342,10.1823355 37.4707895,14.8507895 37.4707895,19.5 C37.4617519,22.6147303 36.7036176,25.6815881 35.2603618,28.4417763 L35.2603618,28.4417763 Z" id="path-2"></path>
    </defs>
    <g id="Page-1" stroke="none" stroke-width="1" fill="none" fill-rule="evenodd">
        <g id="Working-Capital-Finance">
            <rect id="Rectangle" fill-opacity="0" fill="#D8D8D8" x="0" y="0" width="48" height="48"></rect>
            <g id="icon" transform="translate(5.000000, 4.000000)" fill-rule="nonzero">
                <g id="Shape">
                    <use fill="#FFFFFF" xlink:href="#path-2"></use>
                    <use fill="url(#linearGradient-1)" xlink:href="#path-2"></use>
                </g>
                <path d="M19.9996735,12.5248514 C20.0001088,12.5167135 20.0001088,12.508558 19.9996735,12.5004201 C19.9996735,12.2240457 19.775962,12 19.5,12 C19.224038,12 19.0003265,12.2240457 19.0003265,12.5004201 C18.9998912,12.508558 18.9998912,12.5167135 19.0003265,12.5248514 C19.0137964,12.7916351 19.2341164,13.0007883 19.5008412,13 C19.7669159,12.9998892 19.9862354,12.7909836 19.9996735,12.5248514 Z" id="Path" fill="#FFFFFF"></path>
                <path d="M27.9807954,19.1315977 C27.7426246,15.9873012 25.8203392,13.3452276 22.8412524,12.0636057 C22.4522146,11.9030628 22.0032931,12.0772289 21.8329931,12.4547756 C21.6626931,12.8323223 21.8340455,13.2735132 22.2178437,13.4456721 C24.6646253,14.4971615 26.2420186,16.6624413 26.4385421,19.2383995 C26.6790763,22.6903956 24.2259,25.7676845 20.7410866,26.3853448 C17.2562731,27.003005 13.8528806,24.9637544 12.8367719,21.6492237 C11.8206632,18.3346931 13.5163859,14.8035518 16.7750559,13.448215 C17.1671544,13.2842507 17.3489544,12.8408068 17.1811176,12.4577553 C17.0132807,12.0747038 16.5593634,11.8970985 16.1672649,12.0610628 C13.0814568,13.3490419 11.1019063,16.2072621 11.0016923,19.51939 L11.0016923,19.5308331 C10.9394761,22.5831369 12.5967005,25.4226414 15.317147,26.924975 C18.0375934,28.4273086 21.3824846,28.3501619 24.0273287,26.724083 C26.6721728,25.0980042 28.1903864,22.1852612 27.9807954,19.1392264 L27.9807954,19.1315977 Z" id="Path" fill="#FFFFFF"></path>
            </g>
        </g>
    </g>
</svg>