<?xml version="1.0" encoding="UTF-8"?>
<svg width="48px" height="48px" viewBox="0 0 48 48" version="1.1" xmlns="http://www.w3.org/2000/svg" xmlns:xlink="http://www.w3.org/1999/xlink">
    <!-- Generator: Sketch 59.1 (86144) - https://sketch.com -->
    <title>Slice 1</title>
    <desc>Created with Sketch.</desc>
    <defs>
        <linearGradient x1="13.3944793%" y1="50%" x2="82.5016213%" y2="223.756942%" id="linearGradient-1">
            <stop stop-color="#DDCC1C" offset="0%"></stop>
            <stop stop-color="#DCC900" offset="100%"></stop>
        </linearGradient>
        <path d="M30.4,0.0763157895 L5.86666667,0.0763157895 C4.98301107,0.0763157895 4.26666667,0.793838388 4.26666667,1.67894737 L4.26666667,14.6822039 C2.63619048,15.6514145 1.6,17.5306908 1.6,19.8421053 L1.6,25.7184211 C0.7163444,25.7184211 -1.0658141e-14,26.4359437 -1.0658141e-14,27.3210526 C-1.0658141e-14,28.2061616 0.7163444,28.9236842 1.6,28.9236842 L17.0666667,28.9236842 C17.9503223,28.9236842 18.6666667,28.2061616 18.6666667,27.3210526 C18.6666667,26.4359437 17.9503223,25.7184211 17.0666667,25.7184211 L17.0666667,25.7184211 L17.0666667,21.4447368 L25.0666667,21.4447368 L25.0666667,23.0473684 C25.0666667,23.3424047 25.3054481,23.5815789 25.6,23.5815789 L28.8,23.5815789 C29.0945519,23.5815789 29.3333333,23.3424047 29.3333333,23.0473684 L29.3333333,21.4447368 L30.4,21.4447368 C31.2836556,21.4447368 32,20.7272142 32,19.8421053 L32,1.67894737 C32,0.793838388 31.2836556,0.0763157895 30.4,0.0763157895 Z M17.6,27.3210526 C17.6,27.616089 17.3612185,27.8552632 17.0666666,27.8552632 L1.6,27.8552632 C1.40945834,27.8552632 1.23339058,27.7534432 1.13811975,27.5881579 C1.04284891,27.4228726 1.04284891,27.2192327 1.13811975,27.0539474 C1.23339058,26.888662 1.40945834,26.7868421 1.6,26.7868421 C1.88297507,26.7870955 2.15443293,26.6746114 2.35452661,26.4741887 C2.55462028,26.2737659 2.66691966,26.0018615 2.66666667,25.7184211 L2.66666667,19.8421053 C2.66666667,17.0107895 4.42095238,15.0342105 6.93333333,15.0342105 L11.2,15.0342105 C13.8496615,15.0373644 15.9968513,17.1880858 16,19.8421053 L16,25.7184211 C15.999747,26.0018615 16.1120464,26.2737659 16.3121401,26.4741887 C16.5122337,26.6746114 16.7836916,26.7870955 17.0666666,26.7868421 C17.2081155,26.7868421 17.3437709,26.8431248 17.4437903,26.9433087 C17.5438097,27.0434927 17.6,27.1793712 17.6,27.3210526 Z M7.46666667,13.4315789 C7.46666667,13.1365426 7.70544813,12.8973684 8,12.8973684 L10.1333333,12.8973684 C10.4278852,12.8973684 10.6666666,13.1365426 10.6666666,13.4315789 C10.6666666,13.7266153 10.4278852,13.9657895 10.1333333,13.9657895 L8,13.9657895 C7.70544813,13.9657895 7.46666667,13.7266153 7.46666667,13.4315789 L7.46666667,13.4315789 Z M11.6266667,13.9877303 C11.9086443,13.2566397 11.609584,12.4292083 10.9257143,12.0483553 L12.727619,8.88888158 C12.8218373,8.72385951 12.8214049,8.52111777 12.7264837,8.3565004 C12.6315625,8.19188302 12.4564547,8.09019374 12.2666667,8.08947368 L7.46666667,8.08947368 L7.46666667,3.81578947 C7.46666667,3.52075315 7.70544813,3.28157895 8,3.28157895 L28.2666667,3.28157895 C28.5612185,3.28157895 28.8,3.52075315 28.8,3.81578947 L28.8,17.7052632 C28.8,18.0002995 28.5612185,18.2394737 28.2666667,18.2394737 L16.8380952,18.2394737 C16.1627464,15.8679543 14.0819679,14.1703514 11.6266667,13.9877303 L11.6266667,13.9877303 Z M11.347619,9.15789474 L9.82380952,11.8289474 L8.30952381,11.8289474 L6.78571429,9.15789474 L11.347619,9.15789474 Z M28.2666667,22.5131579 L26.1333333,22.5131579 L26.1333333,21.4447368 L28.2666667,21.4447368 L28.2666667,22.5131579 Z M30.9333333,19.8421053 C30.9333333,19.9837867 30.877143,20.1196652 30.7771236,20.2198491 C30.6771042,20.3200331 30.5414488,20.3763158 30.4,20.3763158 L17.0666667,20.3763158 L17.0666667,19.8421053 C17.0666667,19.6618092 17.0552381,19.484375 17.0390476,19.3078947 L28.2666667,19.3078947 C29.1503223,19.3078947 29.8666667,18.5903721 29.8666667,17.7052632 L29.8666667,3.81578947 C29.8666667,2.93068049 29.1503223,2.21315789 28.2666667,2.21315789 L8,2.21315789 C7.1163444,2.21315789 6.4,2.93068049 6.4,3.81578947 L6.4,8.08947368 L5.86666667,8.08947368 C5.67640383,8.0896089 5.5006755,8.19143712 5.40571429,8.35657895 C5.35828398,8.43757474 5.33333138,8.52978343 5.33333138,8.62368421 C5.33333138,8.71736319 5.35738267,8.80946748 5.40380952,8.89078947 L7.20666667,12.0502632 C6.52459,12.431222 6.22618881,13.2567332 6.50666667,13.9867763 C6.10864011,14.0154914 5.71507617,14.0887661 5.33333138,14.2052303 L5.33333138,1.67894737 C5.33333138,1.38391104 5.5721148,1.14473684 5.86666667,1.14473684 L30.4,1.14473684 C30.5414488,1.14473684 30.6771042,1.20101958 30.7771236,1.30120348 C30.877143,1.40138739 30.9333333,1.53726593 30.9333333,1.67894737 L30.9333333,19.8421053 Z" id="path-2"></path>
    </defs>
    <g id="Page-1" stroke="none" stroke-width="1" fill="none" fill-rule="evenodd">
        <g id="Insurance-Finance">
            <rect id="Rectangle" fill-opacity="0" fill="#D8D8D8" x="0" y="0" width="48" height="48"></rect>
            <g id="icon" transform="translate(8.000000, 9.000000)">
                <path d="M12,20.9090909 L12,24.0909091 L10.7272727,24.0909091 L10.7272727,23.3407461 L11.3249957,23.3407461 L11.3249957,20.9090909 L12,20.9090909 Z M8.18181818,24.0909091 L8.81818182,24.0909091 L8.81818182,23.4545455 L8.18181818,23.4545455 L8.18181818,24.0909091 Z M9.45454545,24.0909091 L10.0909091,24.0909091 L10.0909091,23.4545455 L9.45454545,23.4545455 L9.45454545,24.0909091 Z M10.7272727,22.8181818 L10.7272727,20.7743896 L9.92024793,20.7743896 L9.92024793,22.0311314 L8.99028926,22.0311314 L8.99028926,19 L8.18181818,19 L8.18181818,22.8181818 C9.03078512,22.8181818 9.87975207,22.8181818 10.7272727,22.8181818 Z M7.54545455,19 L7.54545455,24.0909091 L5,24.0909091 L5,22.0581928 L5.70862007,22.0581928 L5.70862007,23.3067211 L6.83683448,23.3067211 L6.83683448,19 L7.54545455,19 Z" id="Shape" fill="#FFFFFF"></path>
                <g id="Safe-Money-Insurance" fill-rule="nonzero">
                    <g id="Shape">
                        <use fill="#FFFFFF" xlink:href="#path-2"></use>
                        <use fill="url(#linearGradient-1)" xlink:href="#path-2"></use>
                    </g>
                    <path d="M24.5333333,5.95263158 L18.1333333,5.95263158 C17.8387815,5.95263158 17.5999974,6.19180578 17.5999974,6.48684211 L17.5999974,10.6842105 C17.5987544,11.5777024 18.0447115,12.4123367 18.787619,12.9069079 L21.0371429,14.409375 C21.2166813,14.5285474 21.4499854,14.5285474 21.6295238,14.409375 L23.8790476,12.9069079 C24.6219551,12.4123367 25.0679122,11.5777024 25.0666693,10.6842105 L25.0666693,6.48684211 C25.0666693,6.19180578 24.8278852,5.95263158 24.5333333,5.95263158 Z M24.0000121,10.6842105 C24.0020851,11.2211083 23.7343548,11.723032 23.287619,12.0197368 L21.3333333,13.3247368 L19.3790476,12.0197368 C18.9329693,11.7224336 18.6654436,11.2208936 18.6666625,10.6842105 L18.6666625,7.02105263 L24.0000121,7.02105263 L24.0000121,10.6842105 Z" id="Shape" fill="#FFFFFF"></path>
                    <path d="M20.8,11.2947537 C20.9427922,11.2958722 21.080054,11.2395023 21.1809524,11.1382895 L23.3142857,9.00144737 L22.56,8.24592105 L20.8,10.005 L20.1104762,9.31434211 L19.3561905,10.0698684 L20.4228571,11.1382895 C20.522825,11.2385601 20.6585265,11.2948521 20.8,11.2947537 Z" id="Path" fill="#FFFFFF"></path>
                </g>
            </g>
        </g>
    </g>
</svg>